<svg width="22" height="22" viewBox="0 0 22 22" fill="none" xmlns="http://www.w3.org/2000/svg">
<path d="M20.625 9.6875H19.3125V2.03125C19.3125 1.68315 19.1742 1.34931 18.9281 1.10317C18.6819 0.857031 18.3481 0.71875 18 0.71875C17.6519 0.71875 17.3181 0.857031 17.0719 1.10317C16.8258 1.34931 16.6875 1.68315 16.6875 2.03125V9.6875H11.6409L5.03469 1.22406C4.86655 1.00862 4.63534 0.851033 4.37334 0.773295C4.11134 0.695557 3.83161 0.701543 3.57317 0.790418C3.31473 0.879293 3.09049 1.04662 2.93172 1.26906C2.77294 1.4915 2.68757 1.75796 2.6875 2.03125V9.6875H1.375C1.0269 9.6875 0.693064 9.82578 0.446922 10.0719C0.200781 10.3181 0.0625 10.6519 0.0625 11C0.0625 11.3481 0.200781 11.6819 0.446922 11.9281C0.693064 12.1742 1.0269 12.3125 1.375 12.3125H2.6875V19.9688C2.6875 20.3168 2.82578 20.6507 3.07192 20.8968C3.31806 21.143 3.6519 21.2812 4 21.2812C4.3481 21.2812 4.68194 21.143 4.92808 20.8968C5.17422 20.6507 5.3125 20.3168 5.3125 19.9688V12.3125H10.3591L16.9653 20.7759C17.1335 20.9914 17.3647 21.149 17.6267 21.2267C17.8887 21.3044 18.1684 21.2985 18.4268 21.2096C18.6853 21.1207 18.9095 20.9534 19.0683 20.7309C19.2271 20.5085 19.3124 20.242 19.3125 19.9688V12.3125H20.625C20.9731 12.3125 21.3069 12.1742 21.5531 11.9281C21.7992 11.6819 21.9375 11.3481 21.9375 11C21.9375 10.6519 21.7992 10.3181 21.5531 10.0719C21.3069 9.82578 20.9731 9.6875 20.625 9.6875ZM5.3125 9.6875V5.84625L8.31047 9.6875H5.3125ZM16.6875 16.1537L13.6895 12.3125H16.6875V16.1537Z" fill="#344054"/>
</svg>
